<svg width="33" height="142" viewBox="0 0 33 142" fill="none" xmlns="http://www.w3.org/2000/svg">
<path d="M2.2 -9.53674e-06V-0.50001H1.6737L1.70066 0.0255978L2.2 -9.53674e-06ZM31.8 -9.53674e-06L32.2993 0.0266618L32.3274 -0.50001H31.8V-9.53674e-06ZM26.8 93.6V94.1H27.274L27.2993 93.6267L26.8 93.6ZM7 93.6L6.50066 93.6256L6.52498 94.1H7V93.6ZM5.4 137L5.04636 137.354L5.05439 137.361L5.4 137ZM5.4 114.8L5.05439 114.439L5.05439 114.439L5.4 114.8ZM28.2 114.8L27.8464 115.154L27.8544 115.161L28.2 114.8ZM28.2 137L27.8464 136.646L27.8464 136.646L28.2 137ZM2.2 0.49999H31.8V-0.50001H2.2V0.49999ZM31.3007 -0.0266809L26.3007 93.5733L27.2993 93.6267L32.2993 0.0266618L31.3007 -0.0266809ZM26.8 93.1H7V94.1H26.8V93.1ZM7.49934 93.5744L2.69934 -0.0256169L1.70066 0.0255978L6.50066 93.6256L7.49934 93.5744ZM17 140.9C12.4481 140.9 8.70958 139.474 5.74561 136.639L5.05439 137.361C8.22376 140.393 12.2186 141.9 17 141.9V140.9ZM5.75355 136.646C2.78218 133.675 1.3 130.07 1.3 125.8H0.300001C0.300001 130.33 1.88449 134.192 5.04645 137.354L5.75355 136.646ZM1.3 125.8C1.3 121.531 2.78157 117.996 5.74561 115.161L5.05439 114.439C1.8851 117.47 0.300001 121.269 0.300001 125.8H1.3ZM5.74561 115.161C8.70958 112.326 12.4481 110.9 17 110.9V109.9C12.2186 109.9 8.22376 111.407 5.05439 114.439L5.74561 115.161ZM17 110.9C21.4143 110.9 25.016 112.323 27.8464 115.154L28.5536 114.446C25.5173 111.41 21.6524 109.9 17 109.9V110.9ZM27.8544 115.161C30.8184 117.996 32.3 121.531 32.3 125.8H33.3C33.3 121.269 31.7149 117.47 28.5456 114.439L27.8544 115.161ZM32.3 125.8C32.3 130.07 30.8178 133.675 27.8464 136.646L28.5536 137.354C31.7155 134.192 33.3 130.33 33.3 125.8H32.3ZM27.8464 136.646C25.016 139.477 21.4143 140.9 17 140.9V141.9C21.6524 141.9 25.5173 140.39 28.5536 137.354L27.8464 136.646Z" fill="#BFBFBF"/>
</svg>
