<svg width="23" height="23" viewBox="0 0 23 23" fill="none" xmlns="http://www.w3.org/2000/svg">
<g filter="url(#filter0_d_2_17560)">
<g clip-path="url(#clip0_2_17560)">
<path d="M18.8595 6.03059C18.2962 3.08189 15.9183 0.704036 12.9696 0.140775C7.69483 -0.866774 3.13298 3.69507 4.14053 8.96989C4.70382 11.9186 7.08167 14.2964 10.0303 14.8597C15.3052 15.8672 19.867 11.3054 18.8595 6.03059ZM14.9753 10.9756C14.7922 11.1587 14.5524 11.2502 14.3125 11.2502C14.0726 11.2502 13.8328 11.1587 13.6497 10.9756L10.8372 8.16308C10.6614 7.9873 10.5625 7.74926 10.5625 7.50024V3.75024C10.5625 3.23203 10.9823 2.81274 11.5 2.81274C12.0177 2.81274 12.4375 3.23206 12.4375 3.75024V7.11205L14.9753 9.6499C15.3415 10.0161 15.3415 10.6094 14.9753 10.9756Z" fill="#969696"/>
</g>
</g>
<defs>
<filter id="filter0_d_2_17560" x="0" y="0" width="23" height="23" filterUnits="userSpaceOnUse" color-interpolation-filters="sRGB">
<feFlood flood-opacity="0" result="BackgroundImageFix"/>
<feColorMatrix in="SourceAlpha" type="matrix" values="0 0 0 0 0 0 0 0 0 0 0 0 0 0 0 0 0 0 127 0" result="hardAlpha"/>
<feOffset dy="4"/>
<feGaussianBlur stdDeviation="2"/>
<feComposite in2="hardAlpha" operator="out"/>
<feColorMatrix type="matrix" values="0 0 0 0 0 0 0 0 0 0 0 0 0 0 0 0 0 0 0.25 0"/>
<feBlend mode="normal" in2="BackgroundImageFix" result="effect1_dropShadow_2_17560"/>
<feBlend mode="normal" in="SourceGraphic" in2="effect1_dropShadow_2_17560" result="shape"/>
</filter>
<clipPath id="clip0_2_17560">
<rect width="15" height="15" fill="white" transform="translate(4)"/>
</clipPath>
</defs>
</svg>
