<svg width="23" height="28" viewBox="0 0 23 28" fill="none" xmlns="http://www.w3.org/2000/svg">
<path d="M7.94359 22.4229L6.60742 21.7368L6.99679 24.5334C7.13283 24.5861 7.27394 24.6119 7.41353 24.6119C7.83397 24.6119 8.23958 24.3821 8.44485 23.9824C8.73715 23.4134 8.51266 22.7152 7.94359 22.4229V22.4229Z" fill="#969696"/>
<path d="M8.27871 8.56792L8.83476 8.44337L12.196 6.41772C12.4381 6.27189 12.7133 6.19176 12.995 6.18276C12.8202 5.99649 12.6708 5.78471 12.5531 5.55234L10.7522 6.8154H8.38256H7.41449C7.34223 6.8154 7.27183 6.82313 7.20382 6.83742C7.18979 6.83673 7.17592 6.83562 7.16179 6.83562C7.10822 6.83562 7.05397 6.84049 6.9995 6.85065L4.43177 7.32836C3.8266 6.63263 3.21264 5.92688 2.60467 5.22797L4.38434 1.75542C4.64128 1.25411 4.4431 0.63946 3.94183 0.382529C3.44052 0.125544 2.82587 0.323721 2.56894 0.824987L0.47458 4.9117C0.284502 5.2826 0.33918 5.73188 0.612732 6.0463C1.15465 6.66925 2.42491 8.12954 2.99954 8.79008L4.32903 15.9358C3.95681 16.4621 1.68386 19.6766 1.34616 20.1542C0.939217 20.7296 1.13702 21.5321 1.76278 21.8534L3.02653 22.5023L2.77929 20.7266C2.78278 20.6747 2.57471 19.9788 3.13743 19.3654L6.09384 16.5108L3.65457 19.7899C3.47624 20.0329 3.39976 20.3359 3.44131 20.6344L4.22624 26.2719C4.31395 26.902 4.89588 27.3474 5.53265 27.2589C6.16598 27.1707 6.60786 26.5858 6.51967 25.9525L5.79959 20.7806L9.13504 16.2531C9.54838 15.6921 9.69908 14.9797 9.54833 14.2994L8.27871 8.56792Z" fill="#969696"/>
<path d="M12.0197 23.9824C12.2251 24.3822 12.6306 24.6119 13.0511 24.6119C13.1906 24.6119 13.3318 24.5861 13.4678 24.5334L13.8571 21.7368L12.521 22.4229C11.952 22.7152 11.7275 23.4134 12.0197 23.9824V23.9824Z" fill="#969696"/>
<path d="M14.9729 6.4057C15.1491 6.4057 15.3282 6.38315 15.5067 6.33588C16.6168 6.04184 17.2783 4.90359 16.9843 3.79351C16.7375 2.8618 15.896 2.24609 14.9757 2.24609C14.7995 2.24609 14.6203 2.26864 14.4419 2.31591C13.3319 2.60995 12.6703 3.7482 12.9644 4.85828C13.2111 5.78999 14.0525 6.4057 14.9729 6.4057V6.4057Z" fill="#969696"/>
<path d="M21.6393 2.6514C21.0998 2.5296 20.564 2.87551 20.4231 3.41028L19.4351 7.15993C18.8972 7.22678 17.3938 7.41358 16.8449 7.48175C16.8395 7.48048 13.41 6.81629 13.0476 6.81629C12.869 6.81629 12.6882 6.86298 12.524 6.96191L9.0166 9.05373L9.46351 11.0441L9.68211 10.9951C9.78914 10.9711 9.89162 10.9301 9.98557 10.8734L11.958 9.68478L10.9146 14.313C10.7635 14.9835 10.9109 15.6865 11.3187 16.2397L14.6655 20.7808L13.9491 25.9258C13.862 26.5513 14.2776 27.1505 14.9006 27.2542C14.9655 27.265 15.03 27.2702 15.0936 27.2702C15.6621 27.2702 16.1582 26.8511 16.2388 26.272L17.0238 20.6345C17.0653 20.336 16.9888 20.033 16.8105 19.79L14.1947 16.2224L17.3276 19.3655C17.64 19.6891 17.7674 20.1232 17.7123 20.5369L17.6858 20.7267L17.4385 22.5024L18.7022 21.8535C19.0008 21.7002 19.2182 21.4249 19.2981 21.099C19.3781 20.773 19.3126 20.4284 19.1189 20.1543L16.1141 15.5747L17.3167 9.47877C18.0781 9.38418 18.4855 9.33352 20.3713 9.09919C20.7849 9.0478 21.1257 8.74995 21.2318 8.34693L22.4019 3.90641C22.5485 3.34973 22.2056 2.77923 21.6393 2.6514V2.6514Z" fill="#969696"/>
<path d="M5.94903 6.3995C6.92446 6.46874 7.84384 5.83985 8.10395 4.85781C8.39799 3.74772 7.73644 2.60947 6.62635 2.31543C5.51626 2.0214 4.37801 2.68294 4.08397 3.79303C3.74939 5.05635 4.64828 6.30719 5.94903 6.3995V6.3995Z" fill="#969696"/>
</svg>
