<svg width="29" height="27" viewBox="0 0 29 27" fill="none" xmlns="http://www.w3.org/2000/svg">
<path d="M22.3198 1.12608C21.6275 0.4745 20.7415 0.161621 19.8485 0.161621C18.8434 0.161621 17.8282 0.557935 17.0714 1.3158L16.7466 1.6406L16.4218 1.31481C15.6649 0.557935 14.6498 0.161621 13.6446 0.161621C12.7517 0.161621 11.8657 0.4745 11.1734 1.12608C9.65068 2.55937 9.62386 4.95712 11.0919 6.42517L16.7466 12.0798L22.4012 6.42517C23.8693 4.95712 23.8425 2.55937 22.3198 1.12608Z" fill="#DD4053"/>
<path d="M27.8701 14.9593C27.001 14.3703 25.977 14.5372 25.0701 15.0607C24.1633 15.5841 18.9565 20.0359 18.9565 20.0359L13.8313 20.0369C13.5929 20.0369 13.3346 19.7687 13.3346 19.5313C13.3346 19.2522 13.578 19.0347 13.8313 19.0347H16.967C18.0646 19.0347 19.2933 18.3196 19.2933 17.0482C19.2933 15.6973 18.0646 15.0616 16.967 15.0616C15.0629 15.0616 14.6924 15.0696 14.6924 15.0696C13.9296 15.0696 13.1558 15.0239 12.5599 14.7051C11.7653 14.2978 10.8495 14.0674 9.8721 14.0674C8.23122 14.0674 6.76218 14.7219 5.755 15.754L0.40625 21.0203L6.36586 26.9799L8.3524 24.9933H18.4112C19.4125 24.9933 20.3789 24.6258 21.1268 23.9613L27.9377 16.3211C28.3539 15.9516 28.33 15.2722 27.8701 14.9593Z" fill="#DD4053"/>
</svg>
